<!--
    Copyright 2026 Aiven Oy and project contributors

    Licensed under the Apache License, Version 2.0 (the "License");
    you may not use this file except in compliance with the License.
    You may obtain a copy of the License at

    https://www.apache.org/licenses/LICENSE-2.0

    Unless required by applicable law or agreed to in writing,
    software distributed under the License is distributed on an
    "AS IS" BASIS, WITHOUT WARRANTIES OR CONDITIONS OF ANY
    KIND, either express or implied.  See the License for the
    specific language governing permissions and limitations
    under the License.

    SPDX-License-Identifier: Apache-2.0
-->
<svg xmlns="http://www.w3.org/2000/svg" width="512" height="512" viewBox="0 0 512 512">
  <style>
    path {
      fill: #05080f;
    }

    @media (prefers-color-scheme: dark) {
      path {
        fill: #fff;
      }
    }
  </style>
  <path d="M397.171 330.707C406.155 330.707 414.849 332.349 423.028 335.312 435.844 320.499 442.768 304.27 442.768 287.622 442.768 260.154 424.22 233.717 390.569 213.173 354.536 191.147 306.363 179.039 254.873 179.039 203.384 179.039 155.21 191.179 119.177 213.173 85.527 233.749 66.979 260.154 66.979 287.622 66.979 304.27 73.87 320.499 86.718 335.312 94.898 332.349 103.592 330.707 112.576 330.707 132.798 330.707 151.797 338.564 166.159 352.894 176.045 362.812 182.839 375.177 186.091 388.508 207.731 393.532 230.916 396.269 254.873 396.269 278.831 396.269 302.016 393.532 323.655 388.508 326.908 375.177 333.702 362.812 343.588 352.894 357.95 338.564 376.981 330.707 397.203 330.707H397.171ZM254.841 267.561C231.592 267.561 212.69 248.658 212.69 225.409H297.025C297.025 248.658 278.09 267.561 254.873 267.561H254.841ZM108.776 193.304C112.833 190.824 117.084 188.538 121.399 186.316L121.238 186.187C110.579 178.169 98.053 174.305 85.656 174.305 67.623 174.305 49.848 182.452 38.223 197.941L33.232 204.574 66.786 229.82C77.187 216.36 91.291 204.027 108.808 193.304H108.776ZM67.14 345.841C55.901 331.415 48.914 315.636 46.692 299.181 46.177 295.35 45.855 291.485 45.855 287.589 45.855 268.397 52.263 249.914 64.338 233.072H59.991C27.275 233.072.644 259.638.644 292.323V300.631H44.856C33.328 310.194 25.89 323.461 23.893 338.37 21.8 354.085 25.922 369.67 35.55 382.261L39.253 387.091C42.635 374.243 49.268 362.457 58.896 352.829 61.472 350.253 64.242 347.966 67.107 345.809L67.14 345.841ZM442.929 229.82 476.482 204.574 471.491 197.941C459.867 182.452 442.059 174.305 424.027 174.305 411.629 174.305 399.103 178.169 388.444 186.187L388.283 186.316C392.598 188.57 396.849 190.824 400.906 193.304 418.424 204.027 432.528 216.36 442.929 229.82ZM508.973 292.355C508.973 259.671 482.342 233.104 449.626 233.104H445.279C457.354 249.946 463.762 268.397 463.762 287.621 463.762 291.518 463.44 295.382 462.925 299.214 460.703 315.669 453.715 331.415 442.477 345.873 445.343 348.031 448.112 350.317 450.688 352.893 460.317 362.521 466.95 374.307 470.331 387.155L474.034 382.325C483.662 369.734 487.784 354.149 485.691 338.435 483.695 323.526 476.256 310.259 464.728 300.727H508.94V292.387L508.973 292.355ZM183.451 165.45C216.135 165.45 242.766 138.82 242.766 106.136 242.766 73.451 216.135 46.821 183.451 46.821 150.767 46.821 124.136 73.419 124.136 106.136 124.136 138.852 150.734 165.45 183.451 165.45ZM183.483 73.612C183.483 73.612 183.676 73.612 183.773 73.612 179.555 77.766 176.914 83.498 176.914 89.906 176.914 102.497 187.122 112.705 199.713 112.705 206.121 112.705 211.885 110.064 216.006 105.814 216.006 105.91 216.006 106.007 216.006 106.136 216.006 124.104 201.451 138.659 183.483 138.659 165.515 138.659 150.96 124.104 150.96 106.136 150.96 88.167 165.515 73.612 183.483 73.612ZM326.199 165.45C358.883 165.45 385.513 138.82 385.513 106.136 385.513 73.451 358.883 46.821 326.199 46.821 293.514 46.821 266.884 73.419 266.884 106.136 266.884 138.852 293.482 165.45 326.199 165.45ZM326.199 73.612C326.199 73.612 326.392 73.612 326.488 73.612 322.27 77.766 319.629 83.498 319.629 89.906 319.629 102.497 329.837 112.705 342.428 112.705 348.836 112.705 354.6 110.064 358.722 105.814 358.722 105.91 358.722 106.007 358.722 106.136 358.722 124.104 344.167 138.659 326.199 138.659 308.23 138.659 293.675 124.104 293.675 106.136 293.675 88.167 308.23 73.612 326.199 73.612Z"/>
  <path d="M112.479 347.162C79.731 347.162 53.197 373.696 53.197 406.444 53.197 439.193 79.731 465.727 112.479 465.727 119.37 465.727 125.939 464.503 132.058 462.346 131.51 461.831 130.931 461.315 130.383 460.768 113.156 443.54 107.359 421.45 117.406 411.371 127.453 401.324 149.575 407.121 166.803 424.348 167.35 424.896 167.865 425.475 168.381 426.055 170.538 419.905 171.762 413.335 171.762 406.444 171.762 373.696 145.228 347.162 112.479 347.162ZM397.267 347.162C364.518 347.162 337.984 373.696 337.984 406.444 337.984 413.335 339.208 419.905 341.365 426.055 341.913 425.475 342.396 424.928 342.943 424.348 360.171 407.121 382.261 401.324 392.34 411.371 402.387 421.418 396.591 443.54 379.363 460.768 378.816 461.315 378.236 461.831 377.688 462.346 383.839 464.503 390.408 465.727 397.267 465.727 430.016 465.727 456.549 439.193 456.549 406.444 456.549 373.696 430.016 347.162 397.267 347.162Z"/>
</svg>
